# xmcd
# 
# Track frame offsets:
#     150
#     14644
#     30530
#     47147
#     61609
#     77404
#     94974
#     114042
#     128729
#     145906
#     156879
#     170739
#     183145
#     198615
#     212348
#     223821
#     239914
#     260153
#     278783
# 
# Disc length: 3875
# 
# Revision: 4
# Processed by: cddbd v1.5.2PL0 Copyright (c) Steve Scherf et al.
# Submitted via: fre:ac v1.0.17
# 
DISCID=140f2113
DTITLE=The BossHoss - Stallion Battalion
DYEAR=2008
DGENRE=Country
TTITLE0=Stallion Battalion
TTITLE1=Monkey Business
TTITLE2=Shake And Shout
TTITLE3=José And Myling
TTITLE4=Free Love On A Free Love Free Way
TTITLE5=Polk Salad Annie
TTITLE6=Omniscient Lover
TTITLE7=Everything Counts
TTITLE8=Goodbye Mary
TTITLE9=Gay Bar
TTITLE10=Truck'n'Roll Rules
TTITLE11=High
TTITLE12=Drop It Like It's Hot
TTITLE13=Jumpin' Around
TTITLE14=On The Sunny Side Of The Street
TTITLE15=Word Up! (UK Single Mix)
TTITLE16=Sugarman
TTITLE17=Shake and Shout (Low Voltage Version)
TTITLE18=Flaming Star
EXTD=YEAR: 2008
EXTT0=
EXTT1=
EXTT2=
EXTT3=
EXTT4=
EXTT5=
EXTT6=
EXTT7=
EXTT8=
EXTT9=
EXTT10=
EXTT11=
EXTT12=
EXTT13=
EXTT14=
EXTT15=
EXTT16=
EXTT17=
EXTT18=
PLAYORDER=
